<svg width="119" height="115" viewBox="0 0 119 115" fill="none" xmlns="http://www.w3.org/2000/svg">
<path d="M32.6381 4.83262C35.2147 2.36365 38.6369 0.971824 42.2054 0.941562L79.2938 0.627047C83.0045 0.59558 86.5758 2.03858 89.2231 4.63896L114.298 29.2699C117.054 31.9765 118.569 35.7011 118.484 39.5625L117.718 74.7031C117.638 78.4131 116.087 81.9391 113.408 84.5065L86.6278 110.167C84.0512 112.636 80.629 114.028 77.0605 114.058L39.9721 114.373C36.2615 114.404 32.6901 112.961 30.0428 110.361L4.96759 85.7301C2.21219 83.0236 0.697365 79.2989 0.781534 75.4375L1.5475 40.2969C1.62837 36.587 3.17882 33.0609 5.85813 30.4935L32.6381 4.83262Z" fill="url(#paint0_linear_4_507)"/>
<defs>
<linearGradient id="paint0_linear_4_507" x1="36.6496" y1="0.988676" x2="82.6163" y2="114.011" gradientUnits="userSpaceOnUse">
<stop stop-color="#FFDB6E"/>
<stop offset="1" stop-color="#FFA652"/>
</linearGradient>
</defs>
</svg>
