<svg width="23" height="26" viewBox="0 0 23 26" fill="none" xmlns="http://www.w3.org/2000/svg">
<path d="M5.46669 7.16667H17.3146C18.7955 7.16667 20.0297 8.83333 20.2765 10.5L21.7575 20.5C22.0045 22.1675 20.2765 23.8333 18.7955 23.8333H3.9857C2.50472 23.8333 0.776775 22.1675 1.02374 20.5L2.50472 10.5C2.75155 8.83333 3.9857 7.16667 5.46669 7.16667Z" stroke="#252323" stroke-linecap="round" stroke-linejoin="round"/>
<path d="M6.94763 10.5V5.48063" stroke="#252323" stroke-linecap="round" stroke-linejoin="round"/>
<path d="M15.8335 5.5V10.5" stroke="#252323" stroke-linecap="round" stroke-linejoin="round"/>
<path d="M1.30969 18.7623H21.4714" stroke="#252323" stroke-linecap="round" stroke-linejoin="round"/>
<path d="M15.8335 5.5C15.8335 3.83333 14.9728 2.05698 13.6035 1.16728C12.2341 0.277574 10.547 0.277574 9.17771 1.16728C7.80838 2.05698 6.94763 3.83333 6.94763 5.5" stroke="#252323" stroke-linecap="round" stroke-linejoin="round"/>
<path d="M8.39774 23.8646V25.4691H1.05496V23.8646H8.39774Z" stroke="#252323" stroke-width="0.0625"/>
</svg>
