<svg width="28" height="28" viewBox="0 0 28 28" fill="none" xmlns="http://www.w3.org/2000/svg">
<path d="M24.5 14C24.5033 16.0845 23.8833 18.1225 22.7197 19.852C21.76 21.2835 20.4623 22.4565 18.9415 23.2672C17.4206 24.0779 15.7234 24.5013 14 24.5C12.2766 24.5013 10.5794 24.0779 9.05852 23.2672C7.53766 22.4565 6.24001 21.2835 5.28033 19.852C4.36652 18.4898 3.78455 16.9325 3.58109 15.3048C3.37763 13.6772 3.55833 12.0245 4.10871 10.4793C4.65908 8.93412 5.56383 7.53934 6.75041 6.40681C7.937 5.27429 9.37241 4.43551 10.9416 3.95773C12.5108 3.47994 14.1701 3.37644 15.7865 3.65552C17.4028 3.9346 18.9314 4.5885 20.2495 5.56479C21.5676 6.54108 22.6387 7.81261 23.3768 9.27745C24.1149 10.7423 24.4996 12.3597 24.5 14Z" stroke="#252323" stroke-width="1.5"/>
<path d="M15.4583 10.5C15.4583 11.305 14.805 11.9583 14 11.9583V13.7083C14.8509 13.7083 15.667 13.3703 16.2686 12.7686C16.8703 12.167 17.2083 11.3509 17.2083 10.5H15.4583ZM14 11.9583C13.195 11.9583 12.5417 11.305 12.5417 10.5H10.7917C10.7917 11.3509 11.1297 12.167 11.7314 12.7686C12.333 13.3703 13.1491 13.7083 14 13.7083V11.9583ZM12.5417 10.5C12.5417 9.695 13.195 9.04166 14 9.04166V7.29166C13.1491 7.29166 12.333 7.62968 11.7314 8.23136C11.1297 8.83304 10.7917 9.64909 10.7917 10.5H12.5417ZM14 9.04166C14.805 9.04166 15.4583 9.695 15.4583 10.5H17.2083C17.2083 9.64909 16.8703 8.83304 16.2686 8.23136C15.667 7.62968 14.8509 7.29166 14 7.29166V9.04166ZM6.027 20.832L5.18817 20.5823L5.05167 21.0397L5.36317 21.4013L6.027 20.832ZM21.973 20.832L22.638 21.4025L22.9483 21.0408L22.8118 20.5823L21.973 20.832ZM10.5 18.375H17.5V16.625H10.5V18.375ZM10.5 16.625C9.30652 16.6247 8.14483 17.0097 7.18776 17.7227C6.23069 18.4357 5.52938 19.4387 5.18817 20.5823L6.86583 21.0817C7.09946 20.2994 7.57934 19.6134 8.23411 19.1257C8.88889 18.6381 9.68358 18.3748 10.5 18.375V16.625ZM14 23.625C12.611 23.6266 11.2382 23.3268 9.97627 22.7463C8.71437 22.1658 7.59344 21.3184 6.69083 20.2627L5.36317 21.4013C6.43004 22.6485 7.75465 23.6506 9.2457 24.3364C10.7368 25.0222 12.3588 25.3766 14 25.375V23.625ZM17.5 18.375C19.215 18.375 20.6675 19.516 21.1342 21.0817L22.8118 20.5823C22.4706 19.4387 21.7693 18.4357 20.8122 17.7227C19.8552 17.0097 18.6935 16.6247 17.5 16.625V18.375ZM21.3092 20.2627C20.4066 21.3184 19.2856 22.1658 18.0237 22.7463C16.7618 23.3268 15.389 23.6266 14 23.625V25.375C15.6412 25.3766 17.2632 25.0222 18.7543 24.3364C20.2454 23.6506 21.5711 22.6496 22.638 21.4025L21.3092 20.2627Z" fill="#252323"/>
</svg>
