<svg width="22" height="22" viewBox="0 0 22 22" fill="none" xmlns="http://www.w3.org/2000/svg">
<path d="M7.71866 15.3067C5.58711 15.3067 3.78044 14.5662 2.29866 13.0853C0.817776 11.6053 0.0773315 9.79911 0.0773315 7.66667C0.0773315 5.53422 0.817776 3.72755 2.29866 2.24667C3.77955 0.765777 5.58622 0.0257766 7.71866 0.0266655C9.85111 0.0275544 11.6573 0.767999 13.1373 2.248C14.6173 3.728 15.3578 5.53422 15.3587 7.66667C15.3587 8.59289 15.1947 9.48933 14.8667 10.356C14.5387 11.2227 14.1076 11.964 13.5733 12.58L21.452 20.456C21.5764 20.5804 21.6431 20.7338 21.652 20.916C21.66 21.0964 21.5933 21.2578 21.452 21.4C21.3098 21.5422 21.1524 21.6133 20.98 21.6133C20.8076 21.6133 20.6502 21.5422 20.508 21.4L12.6307 13.5227C11.964 14.0907 11.1973 14.5302 10.3307 14.8413C9.464 15.1524 8.59289 15.308 7.71733 15.308M7.71733 13.9747C9.48622 13.9747 10.98 13.3658 12.1987 12.148C13.4164 10.9302 14.0253 9.43644 14.0253 7.66667C14.0253 5.89689 13.4169 4.40355 12.2 3.18667C10.9831 1.96978 9.48978 1.36089 7.72 1.36C5.95022 1.36 4.45644 1.96889 3.23866 3.18667C2.02089 4.40444 1.41155 5.89778 1.41066 7.66667C1.40978 9.43555 2.01866 10.9289 3.23733 12.1467C4.456 13.3644 5.94933 13.9733 7.71733 13.9733" fill="#C5C5C5"/>
</svg>
